<mxfile host="app.diagrams.net" modified="2022-01-03T07:56:51.021Z" agent="5.0 (Windows NT 10.0; Win64; x64) AppleWebKit/537.36 (KHTML, like Gecko) Chrome/96.0.4664.45 Safari/537.36" etag="VQIFCjgmdg0c1DhlVbBb" version="16.1.2" type="github">
  <diagram id="XhaWagRlBr8u-16tViGo" name="Page-1">
    <mxGraphModel dx="1240" dy="2389" grid="1" gridSize="10" guides="1" tooltips="1" connect="1" arrows="1" fold="1" page="1" pageScale="1" pageWidth="1100" pageHeight="1700" math="0" shadow="0">
      <root>
        <mxCell id="0" />
        <mxCell id="1" parent="0" />
        <mxCell id="t1mqBu5s_cC5ySdqRn4C-3" style="edgeStyle=orthogonalEdgeStyle;rounded=0;orthogonalLoop=1;jettySize=auto;html=1;exitX=1;exitY=0.25;exitDx=0;exitDy=0;" parent="1" source="t1mqBu5s_cC5ySdqRn4C-1" edge="1">
          <mxGeometry relative="1" as="geometry">
            <mxPoint x="210" y="57" as="targetPoint" />
          </mxGeometry>
        </mxCell>
        <mxCell id="t1mqBu5s_cC5ySdqRn4C-4" style="edgeStyle=orthogonalEdgeStyle;rounded=0;orthogonalLoop=1;jettySize=auto;html=1;exitX=0;exitY=0.75;exitDx=0;exitDy=0;entryX=1;entryY=0.75;entryDx=0;entryDy=0;" parent="1" source="t1mqBu5s_cC5ySdqRn4C-5" target="t1mqBu5s_cC5ySdqRn4C-1" edge="1">
          <mxGeometry relative="1" as="geometry">
            <mxPoint x="150" y="170" as="targetPoint" />
            <Array as="points" />
          </mxGeometry>
        </mxCell>
        <mxCell id="t1mqBu5s_cC5ySdqRn4C-1" value="User Interface" style="rounded=0;whiteSpace=wrap;html=1;" parent="1" vertex="1">
          <mxGeometry x="10" y="42" width="120" height="60" as="geometry" />
        </mxCell>
        <mxCell id="t1mqBu5s_cC5ySdqRn4C-2" value="" style="endArrow=classic;html=1;rounded=0;exitX=1;exitY=0.5;exitDx=0;exitDy=0;" parent="1" edge="1" source="MUSWcBlJXzdCJvnlfhoy-1">
          <mxGeometry width="50" height="50" relative="1" as="geometry">
            <mxPoint x="600" y="212" as="sourcePoint" />
            <mxPoint x="650" y="202" as="targetPoint" />
          </mxGeometry>
        </mxCell>
        <mxCell id="t1mqBu5s_cC5ySdqRn4C-8" style="edgeStyle=orthogonalEdgeStyle;rounded=0;orthogonalLoop=1;jettySize=auto;html=1;exitX=0.5;exitY=0;exitDx=0;exitDy=0;" parent="1" source="t1mqBu5s_cC5ySdqRn4C-5" target="t1mqBu5s_cC5ySdqRn4C-9" edge="1">
          <mxGeometry relative="1" as="geometry">
            <mxPoint x="420" y="-30" as="targetPoint" />
            <Array as="points">
              <mxPoint x="270" y="-30" />
            </Array>
          </mxGeometry>
        </mxCell>
        <mxCell id="t1mqBu5s_cC5ySdqRn4C-5" value="Server" style="rounded=0;whiteSpace=wrap;html=1;" parent="1" vertex="1">
          <mxGeometry x="210" y="42" width="120" height="60" as="geometry" />
        </mxCell>
        <mxCell id="t1mqBu5s_cC5ySdqRn4C-7" value="" style="endArrow=classic;html=1;rounded=0;exitX=0.5;exitY=1;exitDx=0;exitDy=0;" parent="1" edge="1" target="MUSWcBlJXzdCJvnlfhoy-1" source="t1mqBu5s_cC5ySdqRn4C-12">
          <mxGeometry width="50" height="50" relative="1" as="geometry">
            <mxPoint x="495" y="222" as="sourcePoint" />
            <mxPoint x="520" y="202" as="targetPoint" />
          </mxGeometry>
        </mxCell>
        <mxCell id="t1mqBu5s_cC5ySdqRn4C-11" style="edgeStyle=orthogonalEdgeStyle;rounded=0;orthogonalLoop=1;jettySize=auto;html=1;exitX=0.5;exitY=1;exitDx=0;exitDy=0;" parent="1" source="t1mqBu5s_cC5ySdqRn4C-9" edge="1">
          <mxGeometry relative="1" as="geometry">
            <mxPoint x="520" y="52" as="targetPoint" />
          </mxGeometry>
        </mxCell>
        <mxCell id="t1mqBu5s_cC5ySdqRn4C-9" value="Voice Activity Detection (VAD)" style="rounded=0;whiteSpace=wrap;html=1;" parent="1" vertex="1">
          <mxGeometry x="460" y="-60" width="120" height="60" as="geometry" />
        </mxCell>
        <mxCell id="t1mqBu5s_cC5ySdqRn4C-12" value="Music detection and Separation" style="rounded=0;whiteSpace=wrap;html=1;" parent="1" vertex="1">
          <mxGeometry x="460" y="62" width="120" height="60" as="geometry" />
        </mxCell>
        <mxCell id="MUSWcBlJXzdCJvnlfhoy-1" value="Speech Diarization" style="rounded=0;whiteSpace=wrap;html=1;" vertex="1" parent="1">
          <mxGeometry x="460" y="172" width="120" height="60" as="geometry" />
        </mxCell>
        <mxCell id="MUSWcBlJXzdCJvnlfhoy-3" value="Analyze" style="text;html=1;align=center;verticalAlign=middle;resizable=0;points=[];autosize=1;strokeColor=none;fillColor=none;" vertex="1" parent="1">
          <mxGeometry x="140" y="32" width="60" height="20" as="geometry" />
        </mxCell>
        <mxCell id="MUSWcBlJXzdCJvnlfhoy-4" value="Report" style="text;html=1;align=center;verticalAlign=middle;resizable=0;points=[];autosize=1;strokeColor=none;fillColor=none;" vertex="1" parent="1">
          <mxGeometry x="140" y="92" width="50" height="20" as="geometry" />
        </mxCell>
        <mxCell id="MUSWcBlJXzdCJvnlfhoy-5" value="Speakers Identification" style="rounded=0;whiteSpace=wrap;html=1;" vertex="1" parent="1">
          <mxGeometry x="650" y="172" width="120" height="60" as="geometry" />
        </mxCell>
        <mxCell id="MUSWcBlJXzdCJvnlfhoy-6" value="Speech Model Sentiment" style="rounded=0;whiteSpace=wrap;html=1;" vertex="1" parent="1">
          <mxGeometry x="650" y="62" width="120" height="60" as="geometry" />
        </mxCell>
        <mxCell id="MUSWcBlJXzdCJvnlfhoy-7" value="Explanation with Transcription" style="rounded=0;whiteSpace=wrap;html=1;" vertex="1" parent="1">
          <mxGeometry x="650" y="-70" width="120" height="60" as="geometry" />
        </mxCell>
        <mxCell id="MUSWcBlJXzdCJvnlfhoy-8" value="" style="endArrow=classic;html=1;rounded=0;entryX=0.5;entryY=1;entryDx=0;entryDy=0;" edge="1" parent="1" target="MUSWcBlJXzdCJvnlfhoy-7">
          <mxGeometry width="50" height="50" relative="1" as="geometry">
            <mxPoint x="710" y="62" as="sourcePoint" />
            <mxPoint x="760" y="12" as="targetPoint" />
          </mxGeometry>
        </mxCell>
        <mxCell id="MUSWcBlJXzdCJvnlfhoy-9" value="" style="endArrow=classic;html=1;rounded=0;entryX=0.5;entryY=1;entryDx=0;entryDy=0;" edge="1" parent="1" target="MUSWcBlJXzdCJvnlfhoy-6">
          <mxGeometry width="50" height="50" relative="1" as="geometry">
            <mxPoint x="709" y="170" as="sourcePoint" />
            <mxPoint x="709" y="130" as="targetPoint" />
          </mxGeometry>
        </mxCell>
        <mxCell id="MUSWcBlJXzdCJvnlfhoy-10" value="Audio File" style="text;html=1;align=center;verticalAlign=middle;resizable=0;points=[];autosize=1;strokeColor=none;fillColor=none;" vertex="1" parent="1">
          <mxGeometry x="310" y="-60" width="70" height="20" as="geometry" />
        </mxCell>
      </root>
    </mxGraphModel>
  </diagram>
</mxfile>
